P3
2 3
255
100 100 100
200 200 200
230 230 230
94 94 94
23 23 23
150 150 150